<mxfile host="Electron" agent="Mozilla/5.0 (Macintosh; Intel Mac OS X 10_15_7) AppleWebKit/537.36 (KHTML, like Gecko) draw.io/28.1.2 Chrome/138.0.7204.243 Electron/37.4.0 Safari/537.36" version="28.1.2">
  <diagram name="Page-1" id="c37626ed-c26b-45fb-9056-f9ebc6bb27b6">
    <mxGraphModel dx="1030" dy="768" grid="1" gridSize="10" guides="1" tooltips="1" connect="1" arrows="1" fold="1" page="1" pageScale="1" pageWidth="1100" pageHeight="850" background="none" math="0" shadow="0">
      <root>
        <mxCell id="0" />
        <mxCell id="1" parent="0" />
        <mxCell id="9CrB2rbeFW8NtR8pWhbt-1" value="Qualities" style="whiteSpace=wrap;html=1;rounded=0;shadow=0;comic=0;strokeWidth=1;fontFamily=Verdana;fontSize=14;fillColor=#f5f5f5;strokeColor=none;verticalAlign=top;fontStyle=1" vertex="1" parent="1">
          <mxGeometry x="40" y="240" width="220" height="870" as="geometry" />
        </mxCell>
        <mxCell id="9CrB2rbeFW8NtR8pWhbt-2" value="Approaches&lt;div&gt;Required&lt;/div&gt;" style="whiteSpace=wrap;html=1;rounded=0;shadow=0;comic=0;strokeWidth=1;fontFamily=Verdana;fontSize=14;fillColor=#f5f5f5;strokeColor=none;verticalAlign=top;fontStyle=1" vertex="1" parent="1">
          <mxGeometry x="320" y="240" width="220" height="870" as="geometry" />
        </mxCell>
        <mxCell id="9CrB2rbeFW8NtR8pWhbt-3" value="Approaches&lt;div&gt;Supportive&lt;/div&gt;" style="whiteSpace=wrap;html=1;rounded=0;shadow=0;comic=0;strokeWidth=1;fontFamily=Verdana;fontSize=14;fillColor=#f5f5f5;strokeColor=none;verticalAlign=top;fontStyle=1" vertex="1" parent="1">
          <mxGeometry x="560" y="240" width="220" height="870" as="geometry" />
        </mxCell>
        <mxCell id="9CrB2rbeFW8NtR8pWhbt-4" value="Qualities&lt;div&gt;negatively affected&lt;/div&gt;" style="whiteSpace=wrap;html=1;rounded=0;shadow=0;comic=0;strokeWidth=1;fontFamily=Verdana;fontSize=14;fillColor=#f5f5f5;strokeColor=none;verticalAlign=top;fontStyle=1" vertex="1" parent="1">
          <mxGeometry x="880" y="240" width="220" height="870" as="geometry" />
        </mxCell>
        <mxCell id="9CrB2rbeFW8NtR8pWhbt-5" value="Monitor" style="rounded=0;whiteSpace=wrap;html=1;fillColor=#d5e8d4;strokeColor=#82b366;" vertex="1" parent="1">
          <mxGeometry x="370" y="300" width="120" height="30" as="geometry" />
        </mxCell>
        <mxCell id="9CrB2rbeFW8NtR8pWhbt-6" value="Ping" style="rounded=0;whiteSpace=wrap;html=1;fillColor=#d5e8d4;strokeColor=#82b366;" vertex="1" parent="1">
          <mxGeometry x="610" y="350" width="120" height="30" as="geometry" />
        </mxCell>
        <mxCell id="9CrB2rbeFW8NtR8pWhbt-7" value="Echo" style="rounded=0;whiteSpace=wrap;html=1;fillColor=#d5e8d4;strokeColor=#82b366;" vertex="1" parent="1">
          <mxGeometry x="610" y="400" width="120" height="30" as="geometry" />
        </mxCell>
        <mxCell id="9CrB2rbeFW8NtR8pWhbt-8" value="Heartbeat" style="rounded=0;whiteSpace=wrap;html=1;fillColor=#d5e8d4;strokeColor=#82b366;" vertex="1" parent="1">
          <mxGeometry x="610" y="450" width="120" height="30" as="geometry" />
        </mxCell>
        <mxCell id="9CrB2rbeFW8NtR8pWhbt-9" value="Availability" style="rounded=0;whiteSpace=wrap;html=1;fillColor=#dae8fc;strokeColor=#6c8ebf;" vertex="1" parent="1">
          <mxGeometry x="90" y="310" width="120" height="30" as="geometry" />
        </mxCell>
      </root>
    </mxGraphModel>
  </diagram>
</mxfile>
